<svg height="682pt" viewBox="-21 -21 682.66624 682" width="682pt" xmlns="http://www.w3.org/2000/svg"><path d="m204.347656 442.277344-5.097656-47.335938-28.554688 38.089844c-34.175781 45.582031-45.445312 129.015625-45.136718 142.574219l.195312 8.421875 6.417969 5.449218c6.582031 5.59375 61.984375 50.855469 129.132813 50.855469 5.921874 0 11.941406-.351562 18.023437-1.117187l39.726563-4.984375-29.257813-27.335938c-52.019531-48.601562-80.398437-117.699219-85.449219-164.617187zm0 0"/><path d="m403.9375 440.539062c-31.582031-64.277343-23.808594-147.058593-20.195312-164.101562l6.082031-28.699219-28.59375 6.511719c-54.375 12.382812-94.5 42.6875-122.671875 92.664062l-.878906 1.5625-.566407 1.699219c-10.203125 30.5-4.402343 85.449219 14.433594 136.734375 23.78125 64.734375 64.726563 114.351563 115.304687 139.691406l3.386719 1.699219 3.78125.25c5.488281.359375 10.984375.542969 16.484375.542969 47.035156 0 93.785156-13.082031 127.664063-36.132812l25.726562-17.507813-27.484375-14.582031c-.722656-.382813-73.246094-40.503906-112.472656-120.332032zm0 0"/><path d="m618.691406 342.726562c-16.820312-36.074218-41.449218-66.179687-69.355468-84.773437-30.738282-20.472656-62.113282-25.007813-88.355469-12.765625-26.238281 12.238281-42.929688 39.203125-46.996094 75.921875-3.6875 33.328125 3.546875 71.550781 20.367187 107.625 29.832032 63.980469 81.09375 104.253906 126.980469 104.25 10.640625 0 21-2.167969 30.734375-6.703125 26.238282-12.246094 42.929688-39.210938 46.992188-75.929688 3.691406-33.328124-3.542969-71.550781-20.367188-107.625zm0 0"/><path d="m274.113281 251.695312c36.347657-11.230468 63.265625-22.324218 64.398438-22.789062l21.792969-9.019531-13.691407-19.207031c-3.933593-5.523438-97.453125-135.28125-193.804687-143.539063-54.941406-4.707031-100.167969 8.257813-127.335938 36.507813-19.425781 20.210937-28.210937 46.695312-24.726562 74.578124 3.71875 29.746094 21.015625 56.925782 48.707031 76.53125 27.695313 19.609376 62.882813 29.96875 101.753906 29.96875 32.074219 0 73.425781-7.75 122.90625-23.03125zm0 0"/><path d="m372.875 210.570312 20.777344-11.164062c8.429687-4.527344 82.667968-45.8125 94.253906-99.734375 6.804688-31.667969 2.328125-59.3125-12.601562-77.835937-11.152344-13.832032-27.101563-21.46875-44.902344-21.503907-.046875 0-.085938 0-.125 0-37.882813 0-69.675782 33.964844-75.625 80.816407-5.34375 42.164062 11.316406 104.046874 12.027344 106.664062zm0 0"/></svg>