<?xml version="1.0" encoding="iso-8859-1"?>
<!-- Generator: Adobe Illustrator 19.0.0, SVG Export Plug-In . SVG Version: 6.00 Build 0)  -->
<svg version="1.1" id="Layer_1" xmlns="http://www.w3.org/2000/svg" xmlns:xlink="http://www.w3.org/1999/xlink" x="0px" y="0px"
	 viewBox="0 0 512.001 512.001" style="enable-background:new 0 0 512.001 512.001;" xml:space="preserve">
<g>
	<g>
		<path d="M256,201.962c-47.051,0-85.33,38.279-85.33,85.33c0,47.051,38.279,85.331,85.33,85.331s85.331-38.279,85.331-85.331
			S303.052,201.962,256,201.962z M256,338.49c-28.231,0-51.198-22.968-51.198-51.198S227.77,236.094,256,236.094
			c28.231,0,51.198,22.968,51.198,51.198S284.231,338.49,256,338.49z"/>
	</g>
</g>
<g>
	<g>
		<path d="M493.567,185.39L288.781,14.734c-18.995-15.844-46.568-15.846-65.557-0.006L18.434,185.389
			c-21.737,18.111-24.671,50.355-6.556,72.1c15.529,18.643,41.662,23.404,62.502,12.845l56.779,204.685H85.339
			c-9.425,0-17.066,7.641-17.066,17.066s7.641,17.066,17.066,17.066c8.813,0,332.576,0,341.322,0
			c9.425,0,17.066-7.641,17.066-17.066s-7.641-17.066-17.066-17.066h-45.82l56.774-204.668c21.214,10.77,47.123,5.596,62.505-12.861
			C518.234,235.75,515.31,203.503,493.567,185.39z M345.42,475.019H166.58l-63.044-227.27l152.464-127.047l152.465,127.047
			L345.42,475.019z M473.898,235.64c-5.954,7.145-16.675,8.308-24.029,2.181L266.925,85.376c-6.328-5.273-15.521-5.275-21.85,0
			L62.156,237.8c-7.254,6.023-18.045,5.055-24.053-2.158c-6.037-7.245-5.071-17.989,2.18-24.03L245.084,40.945
			c6.326-5.278,15.506-5.278,21.841,0.006l204.793,170.661C478.963,217.648,479.938,228.392,473.898,235.64z"/>
	</g>
</g>
<g>
	<g>
		<path d="M290.133,406.755h-68.264c-9.425,0-17.066,7.641-17.066,17.066c0,9.425,7.641,17.066,17.066,17.066h68.264
			c9.425,0,17.066-7.641,17.066-17.066C307.199,414.396,299.558,406.755,290.133,406.755z"/>
	</g>
</g>
<g>
</g>
<g>
</g>
<g>
</g>
<g>
</g>
<g>
</g>
<g>
</g>
<g>
</g>
<g>
</g>
<g>
</g>
<g>
</g>
<g>
</g>
<g>
</g>
<g>
</g>
<g>
</g>
<g>
</g>
</svg>
