<?xml version="1.0" encoding="iso-8859-1"?>
<!-- Generator: Adobe Illustrator 16.0.0, SVG Export Plug-In . SVG Version: 6.00 Build 0)  -->
<!DOCTYPE svg PUBLIC "-//W3C//DTD SVG 1.1//EN" "http://www.w3.org/Graphics/SVG/1.1/DTD/svg11.dtd">
<svg version="1.1" id="Capa_1" xmlns="http://www.w3.org/2000/svg" xmlns:xlink="http://www.w3.org/1999/xlink" x="0px" y="0px"
	 width="907.887px" height="907.887px" viewBox="0 0 907.887 907.887" style="enable-background:new 0 0 907.887 907.887;"
	 xml:space="preserve">
<g>
	<g>
		<path d="M905.986,112.61H725.53V0h-161v112.61H343.356V0h-161v112.61H1.9v795.277h904.086V112.61L905.986,112.61z M629.53,112.61
			V65h31v47.61v65V189h-31v-11.39V112.61z M247.356,112.61V65h31v47.61v65V189h-31v-11.39V112.61z M66.9,177.61h115.456V254h161
			v-76.39H564.53V254h161v-76.39h115.456v119.804H66.9V177.61z M840.986,842.887H66.9V362.414h774.086V842.887L840.986,842.887z"/>
		<rect x="120.856" y="570.91" width="68" height="68"/>
		<rect x="270.4" y="570.91" width="68" height="68"/>
		<rect x="419.943" y="570.91" width="68" height="68"/>
		<rect x="569.486" y="570.91" width="68" height="68"/>
		<rect x="719.03" y="570.91" width="68" height="68"/>
		<rect x="120.856" y="713.5" width="68" height="68"/>
		<rect x="270.4" y="713.5" width="68" height="68"/>
		<rect x="569.486" y="429.5" width="68" height="68"/>
		<rect x="719.03" y="429.5" width="68" height="68"/>
	</g>
</g>
<g>
</g>
<g>
</g>
<g>
</g>
<g>
</g>
<g>
</g>
<g>
</g>
<g>
</g>
<g>
</g>
<g>
</g>
<g>
</g>
<g>
</g>
<g>
</g>
<g>
</g>
<g>
</g>
<g>
</g>
</svg>
