<?xml version="1.0" encoding="utf-8"?>
<!-- Svg Vector Icons : http://www.onlinewebfonts.com/icon -->
<!DOCTYPE svg PUBLIC "-//W3C//DTD SVG 1.1//EN" "http://www.w3.org/Graphics/SVG/1.1/DTD/svg11.dtd">
<svg version="1.1" xmlns="http://www.w3.org/2000/svg" xmlns:xlink="http://www.w3.org/1999/xlink" x="0px" y="0px" viewBox="0 0 1000 1000" enable-background="new 0 0 1000 1000" xml:space="preserve">
<metadata> Svg Vector Icons : http://www.onlinewebfonts.com/icon </metadata>
<g><g transform="translate(0.000000,512.000000) scale(0.100000,-0.100000)"><path d="M3770.7,4338.3L2549,3656.7V2302.9V947.2l-919.1-511.3L710.8-75.3V-1745v-1669.7l1227.4-683.6L3163.7-4780l909.5,505.5c499.8,279.6,917.2,507.4,926.8,507.4s427-227.9,926.8-507.4l909.5-505.5l1225.5,681.7l1227.4,683.6V-1745V-75.3l-919.1,511.3L7451,949.1v1353.8v1353.8l-1225.5,683.6c-674,375.3-1229.3,681.7-1231.2,679.8C4992.3,5020,4440.9,4711.7,3770.7,4338.3z M5622.3,3375.2l593.6-321.7l3.8-1051.2l5.7-1049.3l-612.7-331.3L5000,290.4l-612.7,331.3l-612.7,331.3l5.7,1049.3l3.8,1051.2l593.6,321.7c327.4,178.1,607,323.6,622.3,323.6S5296.8,3553.2,5622.3,3375.2z M4100-527.2l277.6-149.4l3.8-1053.1l3.8-1051.2l-610.8-329.4l-610.8-329.4l-608.9,329.4l-608.9,329.4v1051.2v1051.2l608.9,329.4l608.9,331.3l329.3-180C3675-295.5,3946.9-443,4100-527.2z M7652-460.2l402.1-218.3v-1051.2v-1051.2l-608.9-329.4l-607-329.4l-608.9,329.4l-607,329.4v1051.2v1053.1l603.2,327.4l603.2,329.4l210.6-111.1C7156.1-190.2,7431.8-339.6,7652-460.2z"/></g></g>
</svg>