<?xml version="1.0" encoding="iso-8859-1"?>
<!-- Generator: Adobe Illustrator 19.0.0, SVG Export Plug-In . SVG Version: 6.00 Build 0)  -->
<svg version="1.1" id="Layer_1" xmlns="http://www.w3.org/2000/svg" xmlns:xlink="http://www.w3.org/1999/xlink" x="0px" y="0px"
	 viewBox="0 0 512 512" style="enable-background:new 0 0 512 512;" xml:space="preserve">
<g>
	<g>
		<g>
			<path d="M290.133,251.733H204.8c-4.71,0-8.533,3.823-8.533,8.533V294.4c0,4.71,3.823,8.533,8.533,8.533h85.333
				c4.71,0,8.533-3.823,8.533-8.533v-34.133C298.667,255.556,294.844,251.733,290.133,251.733z M281.6,285.867h-68.267V268.8H281.6
				V285.867z"/>
			<path d="M503.467,55.467H281.6c-4.71,0-8.533,3.823-8.533,8.533v51.2c0,4.71,3.823,8.533,8.533,8.533h8.533v34.133h-68.267
				v-34.133h8.533c4.71,0,8.533-3.823,8.533-8.533V64c0-4.71-3.823-8.533-8.533-8.533H8.533C3.823,55.467,0,59.29,0,64v51.2
				c0,4.71,3.823,8.533,8.533,8.533h8.533V294.4c0,4.71,3.823,8.533,8.533,8.533h8.533V345.6c0,4.71,3.823,8.533,8.533,8.533H76.8
				c4.71,0,8.533-3.823,8.533-8.533v-42.667h51.2V396.8c0,4.71,3.823,8.533,8.533,8.533h8.533V448c0,4.71,3.823,8.533,8.533,8.533
				h34.133c4.71,0,8.533-3.823,8.533-8.533v-42.667h85.333V448c0,4.71,3.823,8.533,8.533,8.533H332.8
				c4.71,0,8.533-3.823,8.533-8.533v-42.667h8.533c4.71,0,8.533-3.823,8.533-8.533v-93.867h68.267V345.6
				c0,4.71,3.823,8.533,8.533,8.533h34.133c4.71,0,8.533-3.823,8.533-8.533v-42.667h8.533c4.71,0,8.533-3.823,8.533-8.533V123.733
				h8.533c4.71,0,8.533-3.823,8.533-8.533V64C512,59.29,508.177,55.467,503.467,55.467z M349.867,209.067h-204.8h-8.533v-34.133
				h76.8h85.333H358.4v34.133H349.867z M17.067,72.533h204.8v34.133h-8.533H25.6h-8.533V72.533z M68.267,337.067H51.2v-34.133
				h17.067V337.067z M76.8,285.867H42.667h-8.533V123.733H204.8v34.133H128c-4.71,0-8.533,3.823-8.533,8.533v51.2
				c0,4.71,3.823,8.533,8.533,8.533h8.533v59.733H76.8z M187.733,439.467h-17.067v-34.133h17.067V439.467z M324.267,439.467H307.2
				v-34.133h17.067V439.467z M341.333,388.267H332.8h-34.133h-102.4h-34.133H153.6V294.4v-68.267h187.733V294.4V388.267z
				 M460.8,337.067h-17.067v-34.133H460.8V337.067z M477.867,285.867h-8.533H435.2h-76.8v-59.733h8.533
				c4.71,0,8.533-3.823,8.533-8.533v-51.2c0-4.71-3.823-8.533-8.533-8.533H307.2v-34.133h170.667V285.867z M494.933,106.667H486.4
				H298.667h-8.533V72.533h204.8V106.667z"/>
		</g>
	</g>
</g>
<g>
</g>
<g>
</g>
<g>
</g>
<g>
</g>
<g>
</g>
<g>
</g>
<g>
</g>
<g>
</g>
<g>
</g>
<g>
</g>
<g>
</g>
<g>
</g>
<g>
</g>
<g>
</g>
<g>
</g>
</svg>
