<?xml version="1.0" encoding="iso-8859-1"?>
<!-- Generator: Adobe Illustrator 19.0.0, SVG Export Plug-In . SVG Version: 6.00 Build 0)  -->
<svg version="1.1" id="Layer_1" xmlns="http://www.w3.org/2000/svg" xmlns:xlink="http://www.w3.org/1999/xlink" x="0px" y="0px"
	 viewBox="0 0 512 512" style="enable-background:new 0 0 512 512;" xml:space="preserve">
<g>
	<g>
		<polygon style="fill:#AF773A;" points="158.897,454.621 194.207,454.621 194.207,401.655 158.897,401.655 		"/>
		<polygon style="fill:#AF773A;" points="300.138,454.621 335.448,454.621 335.448,401.655 300.138,401.655 		"/>
	</g>
	<polygon style="fill:#FAC176;" points="141.241,401.655 353.103,401.655 353.103,216.276 141.241,216.276 	"/>
	<polygon style="fill:#AF773A;" points="123.586,216.276 370.759,216.276 370.759,163.31 123.586,163.31 	"/>
	<polygon style="fill:#D39750;" points="203.034,295.724 291.31,295.724 291.31,260.414 203.034,260.414 	"/>
	<g>
		<polygon style="fill:#AF773A;" points="441.379,348.69 476.69,348.69 476.69,295.724 441.379,295.724 		"/>
		<polygon style="fill:#AF773A;" points="282.483,110.345 512,110.345 512,57.379 282.483,57.379 		"/>
		<polygon style="fill:#AF773A;" points="35.31,348.69 70.621,348.69 70.621,295.724 35.31,295.724 		"/>
		<polygon style="fill:#AF773A;" points="0,110.345 229.517,110.345 229.517,57.379 0,57.379 		"/>
	</g>
	<g>
		<polygon style="fill:#D39750;" points="300.138,110.345 300.138,163.31 370.759,163.31 370.759,216.276 353.103,216.276 
			353.103,295.724 494.345,295.724 494.345,110.345 		"/>
		<polygon style="fill:#D39750;" points="123.586,163.31 211.862,163.31 211.862,110.345 17.655,110.345 17.655,295.724 
			141.241,295.724 141.241,216.276 123.586,216.276 		"/>
	</g>
</g>
<g>
</g>
<g>
</g>
<g>
</g>
<g>
</g>
<g>
</g>
<g>
</g>
<g>
</g>
<g>
</g>
<g>
</g>
<g>
</g>
<g>
</g>
<g>
</g>
<g>
</g>
<g>
</g>
<g>
</g>
</svg>
