<?xml version="1.0" encoding="iso-8859-1"?>
<!-- Generator: Adobe Illustrator 19.0.0, SVG Export Plug-In . SVG Version: 6.00 Build 0)  -->
<svg version="1.1" id="Layer_1" xmlns="http://www.w3.org/2000/svg" xmlns:xlink="http://www.w3.org/1999/xlink" x="0px" y="0px"
	 viewBox="0 0 512.002 512.002" style="enable-background:new 0 0 512.002 512.002;" xml:space="preserve">
<g>
	<path style="fill:#4482C3;" d="M291.311,354.138v7.795c0,19.5-15.81,35.31-35.31,35.31c-19.5,0-35.31-15.81-35.31-35.31v-7.795
		c-79.439,8.792-141.241,76.085-141.241,157.864h353.103C432.553,430.223,370.751,362.93,291.311,354.138"/>
	<g>
		<path style="fill:#E6E7E8;" d="M326.622,450.207c-4.873,0-8.828-3.955-8.828-8.828v-44.138c0-4.873,3.955-8.828,8.828-8.828
			c4.873,0,8.828,3.955,8.828,8.828v44.138C335.449,446.252,331.494,450.207,326.622,450.207"/>
		<path style="fill:#E6E7E8;" d="M185.38,450.207c-4.873,0-8.828-3.955-8.828-8.828v-44.138c0-4.873,3.955-8.828,8.828-8.828
			c4.873,0,8.828,3.955,8.828,8.828v44.138C194.208,446.252,190.253,450.207,185.38,450.207"/>
		<path style="fill:#E6E7E8;" d="M256.001,123.586H70.622l31.294,242.511c2.295,17.814,17.461,31.144,35.416,31.144h118.669H374.67
			c17.955,0,33.121-13.33,35.416-31.144l31.294-242.511H256.001z"/>
	</g>
	<path style="fill:#D6AF8A;" d="M256.001,308.966c-12.562,0-24.488-2.666-35.31-7.398v60.363c0,19.5,15.81,35.31,35.31,35.31
		c19.5,0,35.31-15.81,35.31-35.31v-60.363C280.489,306.3,268.563,308.966,256.001,308.966"/>
	<path style="fill:#FDD7AD;" d="M171.777,123.586c-2.622,8.36-4.052,17.258-4.052,26.483v70.621
		c0,48.755,39.521,88.276,88.276,88.276s88.276-39.521,88.276-88.276v-70.621c0-9.225-1.43-18.123-4.052-26.483H171.777z"/>
	<path style="fill:#E6E7E8;" d="M353.104,512H158.897v-43.458c0-15.007,12.156-27.162,27.162-27.162h139.882
		c15.007,0,27.162,12.156,27.162,27.162V512z"/>
	<g>
		<path style="fill:#D6AF8A;" d="M353.104,158.897c-3.116,0-6.056,0.636-8.828,1.624v49.717c2.772,0.989,5.711,1.624,8.828,1.624
			c14.627,0,26.483-11.855,26.483-26.483C379.587,170.752,367.732,158.897,353.104,158.897"/>
		<path style="fill:#D6AF8A;" d="M158.897,211.862c3.116,0,6.056-0.636,8.828-1.624v-49.717c-2.772-0.989-5.711-1.624-8.828-1.624
			c-14.627,0-26.483,11.855-26.483,26.483C132.415,200.007,144.27,211.862,158.897,211.862"/>
	</g>
	<path style="fill:#95A5A5;" d="M441.38,123.586H70.622c-9.746,0-17.655-7.91-17.655-17.655s7.91-17.655,17.655-17.655H441.38
		c9.746,0,17.655,7.91,17.655,17.655S451.126,123.586,441.38,123.586"/>
	<path style="fill:#E6E7E8;" d="M398.911,88.276c-29.308-19.377-56.249-42.143-82.07-66.154C302.293,8.598,280.453,0,256.001,0
		c-24.452,0-46.292,8.598-60.84,22.122c-25.821,24.011-52.762,46.777-82.07,66.154H398.911z"/>
</g>
<g>
</g>
<g>
</g>
<g>
</g>
<g>
</g>
<g>
</g>
<g>
</g>
<g>
</g>
<g>
</g>
<g>
</g>
<g>
</g>
<g>
</g>
<g>
</g>
<g>
</g>
<g>
</g>
<g>
</g>
</svg>
