<?xml version="1.0" encoding="iso-8859-1"?>
<!-- Generator: Adobe Illustrator 19.0.0, SVG Export Plug-In . SVG Version: 6.00 Build 0)  -->
<svg version="1.1" id="Layer_1" xmlns="http://www.w3.org/2000/svg" xmlns:xlink="http://www.w3.org/1999/xlink" x="0px" y="0px"
	 viewBox="0 0 512 512" style="enable-background:new 0 0 512 512;" xml:space="preserve">
<g>
	<polygon style="fill:#E4C05C;" points="88.276,423.724 423.724,423.724 423.724,282.483 88.276,282.483 	"/>
	<polygon style="fill:#B19046;" points="88.276,282.483 423.724,282.483 423.724,141.241 88.276,141.241 	"/>
	<g>
		<polygon style="fill:#E4C05C;" points="441.379,141.241 70.621,141.241 256,0 		"/>
		<polygon style="fill:#E4C05C;" points="105.931,512 158.897,512 158.897,459.034 105.931,459.034 		"/>
		<polygon style="fill:#E4C05C;" points="353.103,512 406.069,512 406.069,459.034 353.103,459.034 		"/>
	</g>
	<path style="fill:#B19046;" d="M432.552,459.034H79.448c-9.746,0-17.655-7.91-17.655-17.655c0-9.746,7.91-17.655,17.655-17.655
		h353.103c9.746,0,17.655,7.91,17.655,17.655C450.207,451.125,442.297,459.034,432.552,459.034"/>
	<g>
		<path style="fill:#E4C05C;" d="M61.802,167.733c-2.692,0-5.332-1.218-7.071-3.531c-2.931-3.902-2.136-9.437,1.766-12.359
			l35.31-26.483c3.902-2.94,9.437-2.136,12.359,1.766c2.931,3.902,2.136,9.437-1.766,12.359l-35.31,26.483
			C65.501,167.159,63.647,167.733,61.802,167.733"/>
		<path style="fill:#E4C05C;" d="M450.198,167.724c-1.845,0-3.699-0.574-5.288-1.766l-35.31-26.483
			c-3.902-2.922-4.696-8.457-1.766-12.359c2.922-3.893,8.466-4.696,12.359-1.766l35.31,26.483c3.902,2.922,4.696,8.457,1.766,12.359
			C455.53,166.506,452.891,167.724,450.198,167.724"/>
		<path style="fill:#E4C05C;" d="M291.31,211.862c0,19.5-15.81,35.31-35.31,35.31s-35.31-15.81-35.31-35.31s15.81-35.31,35.31-35.31
			S291.31,192.362,291.31,211.862"/>
	</g>
	<path style="fill:#B19046;" d="M291.31,353.103c0,19.5-15.81,35.31-35.31,35.31s-35.31-15.81-35.31-35.31
		c0-19.5,15.81-35.31,35.31-35.31S291.31,333.603,291.31,353.103"/>
</g>
<g>
</g>
<g>
</g>
<g>
</g>
<g>
</g>
<g>
</g>
<g>
</g>
<g>
</g>
<g>
</g>
<g>
</g>
<g>
</g>
<g>
</g>
<g>
</g>
<g>
</g>
<g>
</g>
<g>
</g>
</svg>
