<?xml version="1.0" encoding="iso-8859-1"?>
<!-- Generator: Adobe Illustrator 19.0.0, SVG Export Plug-In . SVG Version: 6.00 Build 0)  -->
<svg version="1.1" id="Layer_1" xmlns="http://www.w3.org/2000/svg" xmlns:xlink="http://www.w3.org/1999/xlink" x="0px" y="0px"
	 viewBox="0 0 511.998 511.998" style="enable-background:new 0 0 511.998 511.998;" xml:space="preserve">
<g>
	<g>
		<g>
			<path d="M474.452,163.838l-34.064-25.548c-0.004-0.003-0.007-0.006-0.01-0.009L261.178,1.747c-3.072-2.33-7.287-2.33-10.351,0
				L71.715,138.214c-0.012,0.009-0.024,0.016-0.036,0.024l-34.133,25.6c-3.772,2.825-4.54,8.175-1.707,11.947
				c1.681,2.236,4.233,3.413,6.835,3.413c1.784,0,3.576-0.555,5.111-1.707l31.858-23.893h5.689v128v128
				c-14.114,0-25.6,11.486-25.6,25.6s11.486,25.6,25.6,25.6h17.067v42.667c0,4.71,3.814,8.533,8.533,8.533h51.2
				c4.719,0,8.533-3.823,8.533-8.533v-42.667h170.667v42.667c0,4.71,3.814,8.533,8.533,8.533h51.2c4.719,0,8.533-3.823,8.533-8.533
				v-42.667h17.067c14.114,0,25.6-11.486,25.6-25.6s-11.486-25.6-25.6-25.6v-128v-128h5.689l31.858,23.893
				c1.536,1.152,3.328,1.707,5.111,1.707c2.603,0,5.154-1.178,6.835-3.413C478.992,172.013,478.224,166.662,474.452,163.838z
				 M255.998,19.258l153.916,117.274H102.082L255.998,19.258z M153.599,494.931h-34.133v-34.133h34.133V494.931z M392.532,494.931
				h-34.133v-34.133h34.133V494.931z M435.199,435.198c0,4.702-3.823,8.533-8.533,8.533h-25.6h-51.2H162.132h-51.2h-25.6
				c-4.71,0-8.533-3.831-8.533-8.533s3.823-8.533,8.533-8.533h8.533h324.267h8.533C431.376,426.665,435.199,430.496,435.199,435.198
				z M102.399,409.598V290.131h307.2v119.467H102.399z M409.599,273.065h-307.2V153.598h307.2V273.065z"/>
			<path d="M255.999,255.998c23.526,0,42.667-19.14,42.667-42.667c0-23.526-19.14-42.667-42.667-42.667
				c-23.526,0-42.667,19.14-42.667,42.667C213.332,236.858,232.473,255.998,255.999,255.998z M255.999,187.731
				c14.114,0,25.6,11.486,25.6,25.6c0,14.114-11.486,25.6-25.6,25.6c-14.114,0-25.6-11.486-25.6-25.6
				C230.399,199.217,241.885,187.731,255.999,187.731z"/>
			<path d="M255.999,307.198c-23.526,0-42.667,19.14-42.667,42.667c0,23.526,19.14,42.667,42.667,42.667
				c23.526,0,42.667-19.14,42.667-42.667C298.666,326.338,279.525,307.198,255.999,307.198z M255.999,375.465
				c-14.114,0-25.6-11.486-25.6-25.6s11.486-25.6,25.6-25.6c14.114,0,25.6,11.486,25.6,25.6S270.113,375.465,255.999,375.465z"/>
		</g>
	</g>
</g>
<g>
</g>
<g>
</g>
<g>
</g>
<g>
</g>
<g>
</g>
<g>
</g>
<g>
</g>
<g>
</g>
<g>
</g>
<g>
</g>
<g>
</g>
<g>
</g>
<g>
</g>
<g>
</g>
<g>
</g>
</svg>
