<?xml version="1.0" encoding="iso-8859-1"?>
<!-- Generator: Adobe Illustrator 19.0.0, SVG Export Plug-In . SVG Version: 6.00 Build 0)  -->
<svg version="1.1" id="Layer_1" xmlns="http://www.w3.org/2000/svg" xmlns:xlink="http://www.w3.org/1999/xlink" x="0px" y="0px"
	 viewBox="0 0 512 512" style="enable-background:new 0 0 512 512;" xml:space="preserve">
<g>
	<g>
		<path d="M395.648,245.344h-7.688c3.641-6.281,5.719-13.563,5.719-21.344c0-23.563-19.094-42.656-42.656-42.656h-5.734
			c3.641-6.281,5.734-13.563,5.734-21.344c0-23.563-19.109-42.656-42.672-42.656c0-25.813-18.328-47.328-42.672-52.266V10.672
			C265.68,4.781,260.914,0,255.023,0s-10.672,4.781-10.672,10.672v54.406c-24.344,4.938-42.672,26.453-42.672,52.266
			c-23.563,0-42.656,19.094-42.656,42.656c0,7.781,2.094,15.063,5.719,21.344h-5.719c-23.563,0-42.672,19.094-42.672,42.656
			c0,7.781,2.094,15.063,5.734,21.344h-5.734c-23.563,0-42.672,19.094-42.672,42.656s19.109,42.672,42.672,42.672h5.734
			c-3.641,6.281-5.734,13.563-5.734,21.328c0,23.563,19.109,42.672,42.672,42.672h5.719c-3.625,6.281-5.719,13.563-5.719,21.328
			c0,23.563,19.094,42.672,42.656,42.672c0,29.453,23.891,53.328,53.344,53.328s53.328-23.875,53.328-53.328
			c23.563,0,42.672-19.109,42.672-42.672c0-7.766-2.094-15.047-5.734-21.328h5.734c23.563,0,42.656-19.109,42.656-42.672
			c0-7.766-2.078-15.047-5.719-21.328h7.688c23.578,0,42.672-19.109,42.672-42.672S419.227,245.344,395.648,245.344z
			 M255.023,85.344c17.641,0,32,14.344,32,32h-64C223.023,99.688,237.383,85.344,255.023,85.344z M201.68,138.672h106.672
			c11.766,0,21.328,9.563,21.328,21.328s-9.563,21.344-21.328,21.344H201.68c-11.75,0-21.328-9.578-21.328-21.344
			S189.93,138.672,201.68,138.672z M159.024,202.672h192c11.766,0,21.328,9.563,21.328,21.328s-9.563,21.344-21.328,21.344h-192
			c-11.766,0-21.344-9.578-21.344-21.344S147.258,202.672,159.024,202.672z M255.023,490.672c-17.656,0-32-14.359-32-32h64
			C287.023,476.313,272.664,490.672,255.023,490.672z M308.352,437.344H201.68c-11.75,0-21.328-9.578-21.328-21.344
			s9.578-21.328,21.328-21.328h106.672c11.765,0,21.328,9.562,21.328,21.328S320.117,437.344,308.352,437.344z M351.024,373.344
			h-192c-11.766,0-21.344-9.578-21.344-21.344s9.578-21.328,21.344-21.328h192c11.765,0,21.328,9.562,21.328,21.328
			S362.789,373.344,351.024,373.344z M395.648,309.344H116.352c-11.766,0-21.328-9.578-21.328-21.344s9.563-21.328,21.328-21.328
			h279.297c11.766,0,21.344,9.563,21.344,21.328S407.414,309.344,395.648,309.344z"/>
	</g>
</g>
<g>
	<g>
		<path d="M255.023,277.344c-5.891,0-10.672,4.766-10.672,10.656s4.781,10.672,10.672,10.672S265.68,293.891,265.68,288
			S260.914,277.344,255.023,277.344z"/>
	</g>
</g>
<g>
</g>
<g>
</g>
<g>
</g>
<g>
</g>
<g>
</g>
<g>
</g>
<g>
</g>
<g>
</g>
<g>
</g>
<g>
</g>
<g>
</g>
<g>
</g>
<g>
</g>
<g>
</g>
<g>
</g>
</svg>
