<?xml version="1.0" encoding="iso-8859-1"?>
<!-- Generator: Adobe Illustrator 19.0.0, SVG Export Plug-In . SVG Version: 6.00 Build 0)  -->
<svg version="1.1" id="Layer_1" xmlns="http://www.w3.org/2000/svg" xmlns:xlink="http://www.w3.org/1999/xlink" x="0px" y="0px"
	 viewBox="0 0 512.009 512.009" style="enable-background:new 0 0 512.009 512.009;" xml:space="preserve">
<g transform="translate(0 -1)">
	<g>
		<path style="fill:#C19817;" d="M17.66,239.354c-2.26,0-4.52-0.865-6.241-2.586c-3.452-3.452-3.452-9.031,0-12.482l79.448-79.448
			c3.452-3.452,9.031-3.452,12.482,0s3.452,9.031,0,12.482l-79.448,79.448C22.179,238.489,19.919,239.354,17.66,239.354"/>
		<path style="fill:#C19817;" d="M494.349,239.354c-2.26,0-4.52-0.865-6.241-2.586l-79.448-79.448
			c-3.452-3.452-3.452-9.031,0-12.482s9.031-3.452,12.482,0l79.448,79.448c3.452,3.452,3.452,9.031,0,12.482
			C498.869,238.489,496.609,239.354,494.349,239.354"/>
		<path style="fill:#C19817;" d="M457.798,345.285H49.575c-3.761,0-6.391-3.743-5.102-7.283l32.662-89.821h353.103l32.662,89.821
			C464.189,341.542,461.567,345.285,457.798,345.285"/>
	</g>
	<g>
		<path style="fill:#F0C419;" d="M457.798,248.181H49.575c-3.761,0-6.391-3.743-5.102-7.283l34.984-89.821H432.56l30.34,89.821
			C464.189,244.438,461.567,248.181,457.798,248.181"/>
		<path style="fill:#F0C419;" d="M457.798,442.388H49.575c-3.761,0-6.391-3.743-5.102-7.283l32.662-89.821h353.103l32.662,89.821
			C464.189,438.645,461.567,442.388,457.798,442.388"/>
	</g>
	<g>
		<polygon style="fill:#C19817;" points="97.108,513.009 132.418,513.009 132.418,442.388 97.108,442.388 		"/>
		<polygon style="fill:#C19817;" points="379.591,513.009 414.901,513.009 414.901,442.388 379.591,442.388 		"/>
		<polygon style="fill:#C19817;" points="432.556,151.078 79.453,151.078 256.004,1 		"/>
	</g>
</g>
<g>
</g>
<g>
</g>
<g>
</g>
<g>
</g>
<g>
</g>
<g>
</g>
<g>
</g>
<g>
</g>
<g>
</g>
<g>
</g>
<g>
</g>
<g>
</g>
<g>
</g>
<g>
</g>
<g>
</g>
</svg>
