<svg class="ml-3 mt-3 mb-3" xmlns="http://www.w3.org/2000/svg" width="50" height="50" viewBox="0 0 385 398"
  version="1.1">
  <path
    d="M 152.500 249.553 C 133.978 252.948, 103.895 254.515, 88.573 252.882 L 79.646 251.931 75.291 256.205 C 71.257 260.164, 71.067 260.577, 72.718 261.802 C 73.764 262.578, 75.703 262.889, 77.412 262.555 C 79.013 262.242, 86.888 261.523, 94.912 260.959 C 102.935 260.394, 116.925 259.012, 126 257.886 C 135.075 256.761, 143.850 255.716, 145.500 255.563 C 147.887 255.343, 159.050 250.151, 160.917 248.393 C 161.416 247.922, 161.350 247.931, 152.500 249.553 M 225 248.944 C 229.230 252.139, 235.305 254.461, 242.500 255.631 C 252.716 257.293, 273.592 259.580, 291.500 260.999 C 299.200 261.609, 306.594 262.262, 307.930 262.450 C 309.267 262.638, 311.137 262.307, 312.086 261.714 C 313.623 260.754, 313.329 260.169, 309.381 256.332 L 304.952 252.028 292.226 253.074 C 283.176 253.817, 274.878 253.799, 263.500 253.011 C 248.579 251.977, 229.131 249.614, 225.209 248.359 C 223.742 247.889, 223.713 247.972, 225 248.944 M 186.313 359.053 C 182.429 360.237, 178.452 364.852, 179.990 366.390 C 181.314 367.714, 193.570 368.442, 199.522 367.549 C 202.781 367.060, 204.493 366.177, 205.673 364.376 C 207.190 362.061, 207.187 361.759, 205.637 360.209 C 203.663 358.234, 191.402 357.501, 186.313 359.053"
    stroke="none" fill="#bcc0c2" fill-rule="evenodd" />
  <path
    d="M 186.655 7.413 C 181.679 9.246, 178.191 12.514, 175.890 17.500 C 172.582 24.668, 174.012 31.826, 180.012 38.133 C 183.908 42.229, 183.918 42.259, 182.315 45.373 C 181.430 47.093, 178.409 51.824, 175.603 55.887 C 166.189 69.515, 161.510 76.571, 160.081 79.295 C 159.301 80.783, 158.275 82, 157.803 82 C 157.330 82, 150.993 78.031, 143.722 73.180 C 136.450 68.328, 128.475 63.161, 126 61.698 C 117.517 56.680, 117.513 56.674, 119.373 52.026 C 121.592 46.480, 121.416 42.238, 118.750 37.020 C 113.888 27.503, 104.704 23.825, 95.723 27.798 C 88.991 30.776, 85.500 36.480, 85.500 44.500 C 85.500 49.566, 85.995 51.394, 88.316 54.902 C 91.406 59.570, 97.399 62.942, 102.674 62.978 L 105.849 63 113.174 85.550 L 120.500 108.101 123.500 107.610 C 125.150 107.340, 133.075 105.968, 141.112 104.560 C 179.725 97.798, 217.289 98.713, 261.500 107.494 L 264.500 108.090 271.795 85.545 L 279.090 63 282.229 63 C 286.982 63, 293.825 59.227, 296.505 55.129 C 299.624 50.360, 300.372 46.966, 299.534 41.381 C 298.699 35.810, 292.697 28.715, 287.317 26.940 C 279.803 24.460, 269.786 28.716, 266.415 35.821 C 264.436 39.991, 264.169 49.579, 265.940 52.888 C 266.574 54.072, 266.795 55.522, 266.432 56.111 C 266.068 56.699, 261.435 60.046, 256.135 63.549 C 250.836 67.052, 242.450 72.629, 237.500 75.942 C 232.550 79.255, 227.980 81.974, 227.345 81.983 C 226.710 81.992, 224.954 79.862, 223.443 77.250 C 221.932 74.638, 217.442 67.775, 213.465 62 C 204.515 49.004, 199.758 41, 200.985 41 C 202.320 41, 206.853 36.025, 208.708 32.523 C 209.576 30.886, 210.286 27.145, 210.286 24.207 C 210.286 12.140, 197.839 3.294, 186.655 7.413 M 189.053 22.437 C 187.497 24.311, 188.218 26.511, 190.851 27.920 C 193.729 29.460, 197.986 25.925, 196.399 23.313 C 194.977 20.971, 190.693 20.460, 189.053 22.437 M 141.252 27.536 C 140.046 28.381, 138.544 30.791, 137.914 32.892 C 136.960 36.077, 137.054 37.312, 138.481 40.319 C 143.177 50.215, 159.235 44.042, 156.557 33.371 C 155.484 29.097, 151.581 26, 147.268 26 C 145.165 26, 142.458 26.691, 141.252 27.536 M 232.360 27.460 C 227.231 31.053, 226.831 40.349, 231.669 43.519 C 234.735 45.528, 240.936 45.681, 243.914 43.822 C 248.766 40.792, 248.638 30.961, 243.701 27.503 C 240.969 25.589, 235.063 25.567, 232.360 27.460 M 99.465 42.057 C 99.106 42.638, 99.088 44.213, 99.425 45.557 C 99.866 47.315, 100.724 48, 102.484 48 C 105.562 48, 107.706 44.556, 105.947 42.436 C 104.558 40.763, 100.415 40.520, 99.465 42.057 M 279.106 42.802 C 277.665 45.495, 279.859 48.296, 283.056 47.845 C 285.028 47.567, 285.500 46.921, 285.500 44.500 C 285.500 41.989, 285.063 41.449, 282.817 41.190 C 280.979 40.978, 279.811 41.485, 279.106 42.802 M 192.004 67.715 C 191.998 69.637, 185.966 76, 184.146 76.004 C 183.145 76.006, 183.751 76.771, 185.696 77.956 C 187.453 79.028, 189.618 81.013, 190.506 82.369 L 192.120 84.833 196.321 80.666 L 200.521 76.500 198.148 74.589 C 196.843 73.537, 194.927 71.287, 193.891 69.589 C 192.855 67.890, 192.006 67.047, 192.004 67.715 M 127.579 84.566 C 125.864 85.820, 125.857 86, 127.453 87.596 C 129.050 89.193, 129.264 89.180, 131.064 87.380 C 132.891 85.553, 132.897 85.417, 131.189 84.350 C 129.838 83.506, 128.956 83.559, 127.579 84.566 M 253.859 84.361 C 252.350 85.465, 252.357 85.723, 253.957 87.699 L 255.692 89.841 257.417 87.825 C 258.367 86.717, 258.998 85.725, 258.822 85.622 C 258.645 85.519, 257.824 84.924, 256.997 84.300 C 255.871 83.450, 255.084 83.465, 253.859 84.361 M 173.500 110.634 C 158.970 111.610, 125.230 117.437, 123.377 119.290 C 122.387 120.280, 127.429 134.985, 128.761 134.993 C 129.454 134.997, 133.954 134.135, 138.761 133.078 C 154.299 129.660, 171.349 128, 190.918 128 C 212.700 128, 226.677 129.213, 243.734 132.583 C 250.462 133.912, 256.359 135, 256.838 135 C 257.899 135, 262.436 120.103, 261.623 119.290 C 260.457 118.124, 240.135 114.140, 227.500 112.601 C 214.280 110.991, 184.394 109.902, 173.500 110.634 M 149.223 159.557 C 146.774 161.272, 146.211 165.811, 148.200 167.800 C 148.936 168.536, 152.533 169, 157.499 169 L 165.599 169 169.857 176.109 C 172.199 180.019, 173.977 183.300, 173.808 183.401 C 166.412 187.790, 163 192.516, 163 198.371 C 163 201.613, 164.968 206.986, 167.343 210.226 L 169.341 212.952 172.420 211.089 C 184.343 203.873, 196.566 203.287, 208.818 209.342 L 215.853 212.819 218.357 209.160 C 223.412 201.771, 222.667 192.549, 216.583 187.207 C 214.719 185.570, 212.618 184.039, 211.915 183.805 C 211.007 183.502, 211.580 181.730, 213.894 177.685 C 218.730 169.232, 219.094 169, 227.500 169 C 232.855 169, 235.285 168.572, 236.429 167.429 C 238.569 165.288, 238.402 162.402, 236 160 C 234.294 158.294, 232.667 158, 224.934 158 C 219.948 158, 215.060 158.433, 214.072 158.961 C 212.353 159.881, 205.436 170.575, 202.945 176.164 C 201.781 178.774, 201.614 178.817, 194.558 178.283 C 189.967 177.936, 186.568 178.161, 185.179 178.904 C 183.465 179.822, 183 179.796, 183 178.783 C 183 176.913, 173.314 160.724, 171.314 159.250 C 168.733 157.348, 152.045 157.580, 149.223 159.557 M 18.500 169.444 C 17.950 169.680, 14.853 170.396, 11.618 171.035 L 5.736 172.197 6.360 178.166 C 8.170 195.485, 18.181 215.474, 31.144 227.654 C 36.992 233.148, 49.277 241.377, 57.021 244.986 L 64.500 248.472 58.250 254.873 C 54.813 258.394, 52 261.826, 52 262.500 C 52 264.190, 60.424 271.847, 66.605 275.777 C 79.130 283.740, 92.720 286.649, 109.770 285.018 C 121.020 283.942, 134.529 280.276, 142.998 276.001 L 148.902 273.020 145.467 278.787 C 137.832 291.605, 135.400 314.491, 139.834 331.811 C 145.307 353.186, 161.242 372.622, 185.162 387.093 L 191.824 391.123 197.146 388.426 C 212.301 380.746, 230.617 363.195, 238.288 349 C 245.574 335.519, 248.430 320.269, 246.810 303.500 C 245.807 293.125, 244.268 287.937, 239.658 279.385 L 236.362 273.271 243.440 276.632 C 255.325 282.276, 268.190 285.002, 282.878 284.988 C 295.825 284.976, 301.823 283.941, 310.053 280.301 C 316.181 277.590, 325.661 271, 330.293 266.232 L 334.087 262.327 327.293 255.378 L 320.500 248.429 326.998 245.464 C 346.543 236.548, 364.336 219.795, 371.525 203.539 C 374.618 196.546, 377.662 185.420, 378.539 177.907 L 379.191 172.314 372.846 170.907 C 368.885 170.029, 360.862 169.515, 351.500 169.539 C 338.396 169.573, 335.110 169.934, 325.500 172.396 C 304.239 177.843, 278.958 189.909, 232.795 216.642 C 225.807 220.689, 219.925 224, 219.724 224 C 219.523 224, 217.338 222.065, 214.870 219.700 C 208.042 213.157, 202.037 210.693, 192.845 210.659 C 186.208 210.635, 184.319 211.061, 178.631 213.861 C 174.912 215.692, 170.756 218.686, 169.034 220.775 C 166.004 224.450, 165.988 224.456, 163.248 222.737 C 161.737 221.788, 154.200 217.570, 146.500 213.362 C 138.800 209.154, 127.360 202.798, 121.077 199.237 C 98.627 186.512, 75.605 176.611, 58.703 172.412 C 50.916 170.477, 45.067 169.775, 34 169.446 C 26.025 169.209, 19.050 169.208, 18.500 169.444 M 24.665 189.750 C 27.576 196.733, 31.249 203.484, 34.324 207.500 C 36.008 209.700, 37.429 211.593, 37.482 211.706 C 37.535 211.819, 39.586 211.217, 42.039 210.369 C 45.421 209.199, 49.645 208.911, 59.500 209.176 L 72.500 209.527 84.500 214.864 C 107.996 225.314, 114.759 227.944, 126.058 231.022 C 137.552 234.154, 155.266 238.067, 155.751 237.582 C 156.162 237.172, 123.719 219.824, 98.500 206.969 C 85.850 200.521, 71.450 193.860, 66.500 192.166 C 55.759 188.490, 41.389 186.010, 30.801 186.004 L 23.102 186 24.665 189.750 M 335.500 187.595 C 331.100 188.374, 323.900 190.174, 319.500 191.594 C 310.018 194.656, 285.018 206.825, 261.902 219.630 C 252.773 224.687, 241.589 230.693, 237.048 232.976 C 232.508 235.259, 228.955 237.289, 229.154 237.487 C 229.530 237.864, 250.170 233.312, 260.401 230.597 C 268.869 228.349, 275.808 225.633, 290 219.008 C 309.434 209.936, 313.462 208.831, 326.963 208.862 C 334.903 208.881, 339.894 209.384, 342.970 210.478 C 347.342 212.032, 347.481 212.017, 349.247 209.783 C 352.371 205.834, 358.142 195.714, 360.094 190.760 L 361.971 186 352.735 186.090 C 347.656 186.139, 339.900 186.817, 335.500 187.595 M 46.192 217.850 C 44.117 218.434, 44.565 218.948, 50.633 222.937 C 58.816 228.317, 68.767 232.486, 79.577 235.066 C 87.444 236.943, 106.433 238.956, 116.500 238.980 C 121.345 238.992, 121.112 238.857, 109 234.623 C 102.125 232.220, 91.027 227.733, 84.339 224.652 C 77.650 221.571, 70.225 218.600, 67.839 218.049 C 63.062 216.948, 49.826 216.826, 46.192 217.850 M 312 219.366 C 308.425 220.645, 302.350 223.161, 298.500 224.959 C 294.650 226.757, 285.200 230.660, 277.500 233.633 L 263.500 239.037 275.500 238.484 C 302.667 237.231, 319.174 233.009, 332.666 223.864 C 340.436 218.597, 340.476 218.548, 337.500 217.895 C 330.362 216.328, 318.598 217.007, 312 219.366 M 152.500 249.553 C 133.967 252.950, 103.895 254.514, 88.550 252.880 L 79.600 251.926 75.099 256.427 L 70.599 260.927 76.050 263.421 C 86.006 267.977, 93.374 269.304, 105.500 268.725 C 119.258 268.068, 129.349 264.902, 147.542 255.536 C 154.632 251.886, 160.636 248.698, 160.883 248.450 C 161.416 247.917, 161.449 247.913, 152.500 249.553 M 225 248.941 C 227.254 250.638, 245.664 259.800, 252.500 262.627 C 272.532 270.911, 292.482 271.153, 308.731 263.309 L 313.961 260.784 309.457 256.406 L 304.952 252.028 292.226 253.074 C 283.176 253.817, 274.878 253.799, 263.500 253.011 C 248.579 251.977, 229.131 249.614, 225.209 248.359 C 223.743 247.889, 223.713 247.972, 225 248.941 M 171.137 268.612 C 164.949 274.214, 164.839 274.399, 167.137 275.352 C 170.090 276.576, 208.729 276.805, 215.500 275.639 L 220.500 274.778 214 268.841 C 207.860 263.232, 207.306 262.948, 204 263.702 C 199.538 264.719, 184.429 264.683, 180.500 263.645 C 177.784 262.927, 176.898 263.397, 171.137 268.612 M 154.131 295.055 C 153.509 296.839, 153 299.540, 153 301.057 C 153 303.753, 153.218 303.856, 162.750 305.658 C 175.642 308.094, 208.036 308.142, 221.855 305.745 C 227.001 304.853, 231.442 303.891, 231.726 303.608 C 232.388 302.946, 231.181 294.883, 230.179 293.279 C 229.581 292.320, 226.195 292.370, 214.459 293.508 C 193.198 295.570, 179.282 295.293, 159.381 292.409 C 155.433 291.837, 155.214 291.947, 154.131 295.055 M 153.825 328.182 L 155.519 334.457 161.009 335.701 C 176.738 339.263, 205.677 339.259, 223.440 335.693 L 229.380 334.500 230.671 329.500 C 232.637 321.883, 233.022 322.160, 222.750 323.812 C 205.814 326.537, 165.295 325.703, 153.816 322.393 C 152.238 321.938, 152.239 322.304, 153.825 328.182 M 186.942 358.898 C 182.421 360.358, 180.263 361.886, 179.704 364.023 C 178.966 366.845, 182.231 368, 190.940 368 C 200.377 368, 203.872 367.126, 205.722 364.301 C 207.178 362.080, 207.171 361.742, 205.637 360.209 C 203.755 358.327, 191.395 357.460, 186.942 358.898"
    stroke="none" fill="#132125" fill-rule="evenodd" />
</svg>
